<svg data-v-fde0c5aa="" xmlns="http://www.w3.org/2000/svg" viewBox="0 0 300 300" class="iconLeft"><!----><defs data-v-fde0c5aa=""><!----></defs><rect data-v-fde0c5aa="" fill="#DCE5FC" x="0" y="0" width="300px" height="300px" class="logo-background-square"></rect><defs data-v-fde0c5aa=""><!----></defs><g data-v-fde0c5aa="" id="08310150-1a53-4db9-a6a0-de327a4db49b" fill="#041F57" transform="matrix(1.4148959589739225,0,0,1.4148959589739225,77.76140004562004,138.24221466188772)"><path d="M2.21 13.80L2.21 13.80Q1.65 13.80 1.26 13.41L1.26 13.41L1.26 13.41Q0.87 13.02 0.87 12.46L0.87 12.46L0.87 4.35L0.87 4.35Q0.87 3.79 1.26 3.40L1.26 3.40L1.26 3.40Q1.65 3.01 2.21 3.01L2.21 3.01L2.21 3.01Q2.77 3.01 3.16 3.40L3.16 3.40L3.16 3.40Q3.56 3.79 3.56 4.35L3.56 4.35L3.56 7.20L7.42 7.20L7.42 4.35L7.42 4.35Q7.42 3.79 7.81 3.40L7.81 3.40L7.81 3.40Q8.20 3.01 8.76 3.01L8.76 3.01L8.76 3.01Q9.32 3.01 9.72 3.40L9.72 3.40L9.72 3.40Q10.11 3.79 10.11 4.35L10.11 4.35L10.11 12.46L10.11 12.46Q10.11 13.02 9.72 13.41L9.72 13.41L9.72 13.41Q9.32 13.80 8.76 13.80L8.76 13.80L8.76 13.80Q8.20 13.80 7.81 13.41L7.81 13.41L7.81 13.41Q7.42 13.02 7.42 12.46L7.42 12.46L7.42 9.38L3.56 9.38L3.56 12.46L3.56 12.46Q3.56 13.02 3.16 13.41L3.16 13.41L3.16 13.41Q2.77 13.80 2.21 13.80L2.21 13.80ZM15.22 13.90L15.22 13.90Q13.96 13.90 13.06 13.38L13.06 13.38L13.06 13.38Q12.17 12.87 11.70 11.96L11.70 11.96L11.70 11.96Q11.24 11.05 11.24 9.90L11.24 9.90L11.24 9.90Q11.24 8.72 11.72 7.81L11.72 7.81L11.72 7.81Q12.19 6.90 13.10 6.38L13.10 6.38L13.10 6.38Q14.01 5.87 15.27 5.87L15.27 5.87L15.27 5.87Q16.53 5.87 17.44 6.38L17.44 6.38L17.44 6.38Q18.35 6.90 18.82 7.81L18.82 7.81L18.82 7.81Q19.28 8.72 19.28 9.87L19.28 9.87L19.28 9.87Q19.28 11.03 18.80 11.95L18.80 11.95L18.80 11.95Q18.31 12.87 17.40 13.38L17.40 13.38L17.40 13.38Q16.48 13.90 15.22 13.90L15.22 13.90ZM15.26 12.04L15.26 12.04Q15.96 12.04 16.31 11.47L16.31 11.47L16.31 11.47Q16.66 10.89 16.66 9.88L16.66 9.88L16.66 9.88Q16.66 8.88 16.31 8.30L16.31 8.30L16.31 8.30Q15.96 7.73 15.25 7.73L15.25 7.73L15.25 7.73Q14.55 7.73 14.20 8.29L14.20 8.29L14.20 8.29Q13.85 8.86 13.85 9.87L13.85 9.87L13.85 9.87Q13.85 10.89 14.20 11.47L14.20 11.47L14.20 11.47Q14.56 12.04 15.26 12.04L15.26 12.04ZM21.50 13.80L21.50 13.80Q20.97 13.80 20.59 13.42L20.59 13.42L20.59 13.42Q20.20 13.03 20.20 12.50L20.20 12.50L20.20 7.15L20.20 7.15Q20.20 6.66 20.56 6.31L20.56 6.31L20.56 6.31Q20.92 5.95 21.41 5.95L21.41 5.95L21.41 5.95Q21.91 5.95 22.27 6.31L22.27 6.31L22.27 6.31Q22.62 6.66 22.62 7.15L22.62 7.15L22.62 7.35L22.62 7.35Q22.95 6.72 23.56 6.31L23.56 6.31L23.56 6.31Q24.18 5.91 25.09 5.91L25.09 5.91L25.09 5.91Q26.98 5.91 27.55 7.42L27.55 7.42L27.55 7.42Q28.29 5.91 30.06 5.91L30.06 5.91L30.06 5.91Q31.46 5.91 32.10 6.70L32.10 6.70L32.10 6.70Q32.75 7.49 32.75 8.88L32.75 8.88L32.75 12.50L32.75 12.50Q32.75 13.03 32.36 13.42L32.36 13.42L32.36 13.42Q31.98 13.80 31.44 13.80L31.44 13.80L31.44 13.80Q30.91 13.80 30.53 13.42L30.53 13.42L30.53 13.42Q30.14 13.03 30.14 12.50L30.14 12.50L30.14 9.27L30.14 9.27Q30.14 8.48 29.81 8.18L29.81 8.18L29.81 8.18Q29.47 7.88 29.04 7.88L29.04 7.88L29.04 7.88Q28.53 7.88 28.15 8.25L28.15 8.25L28.15 8.25Q27.78 8.62 27.78 9.59L27.78 9.59L27.78 12.50L27.78 12.50Q27.78 13.03 27.39 13.42L27.39 13.42L27.39 13.42Q27.01 13.80 26.47 13.80L26.47 13.80L26.47 13.80Q25.94 13.80 25.56 13.42L25.56 13.42L25.56 13.42Q25.17 13.03 25.17 12.50L25.17 12.50L25.17 9.27L25.17 9.27Q25.17 8.48 24.84 8.18L24.84 8.18L24.84 8.18Q24.50 7.88 24.07 7.88L24.07 7.88L24.07 7.88Q23.56 7.88 23.18 8.25L23.18 8.25L23.18 8.25Q22.81 8.62 22.81 9.59L22.81 9.59L22.81 12.50L22.81 12.50Q22.81 13.03 22.42 13.42L22.42 13.42L22.42 13.42Q22.04 13.80 21.50 13.80L21.50 13.80ZM37.56 13.90L37.56 13.90Q36.41 13.90 35.50 13.41L35.50 13.41L35.50 13.41Q34.59 12.92 34.08 12.01L34.08 12.01L34.08 12.01Q33.56 11.10 33.56 9.90L33.56 9.90L33.56 9.90Q33.56 8.74 34.04 7.82L34.04 7.82L34.04 7.82Q34.52 6.90 35.42 6.38L35.42 6.38L35.42 6.38Q36.32 5.87 37.51 5.87L37.51 5.87L37.51 5.87Q38.71 5.87 39.58 6.38L39.58 6.38L39.58 6.38Q40.45 6.89 40.89 7.71L40.89 7.71L40.89 7.71Q41.33 8.54 41.33 9.44L41.33 9.44L41.33 9.44Q41.33 10.01 41.06 10.29L41.06 10.29L41.06 10.29Q40.80 10.57 40.18 10.57L40.18 10.57L36.05 10.57L36.05 10.57Q36.12 11.26 36.54 11.66L36.54 11.66L36.54 11.66Q36.96 12.07 37.62 12.07L37.62 12.07L37.62 12.07Q38.01 12.07 38.28 11.94L38.28 11.94L38.28 11.94Q38.54 11.80 38.75 11.59L38.75 11.59L38.75 11.59Q38.95 11.41 39.11 11.32L39.11 11.32L39.11 11.32Q39.27 11.23 39.51 11.23L39.51 11.23L39.51 11.23Q39.94 11.23 40.25 11.54L40.25 11.54L40.25 11.54Q40.56 11.86 40.56 12.31L40.56 12.31L40.56 12.31Q40.56 12.80 40.14 13.15L40.14 13.15L40.14 13.15Q39.76 13.47 39.06 13.69L39.06 13.69L39.06 13.69Q38.36 13.90 37.56 13.90L37.56 13.90ZM36.06 9.04L38.82 9.04L38.82 9.04Q38.79 8.37 38.42 7.98L38.42 7.98L38.42 7.98Q38.05 7.59 37.46 7.59L37.46 7.59L37.46 7.59Q36.88 7.59 36.50 7.98L36.50 7.98L36.50 7.98Q36.13 8.37 36.06 9.04L36.06 9.04ZM48.41 13.93L48.41 13.93Q47.15 13.93 46.28 13.57L46.28 13.57L46.28 13.57Q45.40 13.20 45.40 12.40L45.40 12.40L45.40 12.40Q45.40 11.94 45.71 11.60L45.71 11.60L45.71 11.60Q46.02 11.26 46.51 11.26L46.51 11.26L46.51 11.26Q46.79 11.26 46.98 11.38L46.98 11.38L46.98 11.38Q47.18 11.49 47.38 11.72L47.38 11.72L47.38 11.72Q47.59 11.98 47.80 12.10L47.80 12.10L47.80 12.10Q48.01 12.21 48.47 12.21L48.47 12.21L48.47 12.21Q49.55 12.21 49.55 11.54L49.55 11.54L49.55 11.54Q49.55 11.31 49.38 11.17L49.38 11.17L49.38 11.17Q49.22 11.03 48.73 10.93L48.73 10.93L47.78 10.74L47.78 10.74Q46.47 10.47 45.85 9.94L45.85 9.94L45.85 9.94Q45.23 9.41 45.23 8.48L45.23 8.48L45.23 8.48Q45.23 7.28 46.18 6.57L46.18 6.57L46.18 6.57Q47.12 5.87 48.69 5.87L48.69 5.87L48.69 5.87Q49.84 5.87 50.69 6.23L50.69 6.23L50.69 6.23Q51.55 6.59 51.55 7.35L51.55 7.35L51.55 7.35Q51.55 7.85 51.25 8.16L51.25 8.16L51.25 8.16Q50.95 8.46 50.50 8.46L50.50 8.46L50.50 8.46Q49.99 8.46 49.63 7.99L49.63 7.99L49.63 7.99Q49.49 7.80 49.28 7.69L49.28 7.69L49.28 7.69Q49.07 7.57 48.65 7.57L48.65 7.57L48.65 7.57Q48.20 7.57 47.94 7.73L47.94 7.73L47.94 7.73Q47.68 7.88 47.68 8.18L47.68 8.18L47.68 8.18Q47.68 8.41 47.88 8.54L47.88 8.54L47.88 8.54Q48.08 8.67 48.55 8.76L48.55 8.76L49.64 8.99L49.64 8.99Q50.90 9.25 51.47 9.79L51.47 9.79L51.47 9.79Q52.04 10.32 52.04 11.26L52.04 11.26L52.04 11.26Q52.04 12.49 51.13 13.21L51.13 13.21L51.13 13.21Q50.23 13.93 48.41 13.93L48.41 13.93ZM55.48 13.80L55.48 13.80Q54.81 13.80 54.29 13.39L54.29 13.39L54.29 13.39Q53.77 12.98 53.62 12.33L53.62 12.33L52.44 7.45L52.44 7.45Q52.40 7.20 52.40 7.17L52.40 7.17L52.40 7.17Q52.40 6.66 52.76 6.31L52.76 6.31L52.76 6.31Q53.12 5.95 53.62 5.95L53.62 5.95L53.62 5.95Q54.05 5.95 54.39 6.23L54.39 6.23L54.39 6.23Q54.73 6.51 54.81 6.93L54.81 6.93L55.30 9.48L55.54 10.89L55.64 11.62L55.72 11.62L55.85 10.89L55.85 10.89Q55.97 10.12 56.13 9.48L56.13 9.48L56.66 7.17L56.66 7.17Q56.77 6.65 57.20 6.30L57.20 6.30L57.20 6.30Q57.64 5.95 58.18 5.95L58.18 5.95L58.18 5.95Q58.73 5.95 59.16 6.30L59.16 6.30L59.16 6.30Q59.60 6.65 59.71 7.17L59.71 7.17L60.24 9.48L60.24 9.48Q60.35 9.94 60.54 11.00L60.54 11.00L60.68 11.84L60.76 11.84L60.87 11.00L60.87 11.00Q61.01 10.00 61.11 9.48L61.11 9.48L61.60 6.89L61.60 6.89Q61.67 6.48 61.99 6.22L61.99 6.22L61.99 6.22Q62.31 5.95 62.73 5.95L62.73 5.95L62.73 5.95Q63.22 5.95 63.56 6.29L63.56 6.29L63.56 6.29Q63.90 6.62 63.90 7.11L63.90 7.11L63.90 7.11Q63.90 7.13 63.85 7.38L63.85 7.38L62.66 12.32L62.66 12.32Q62.51 12.96 61.98 13.38L61.98 13.38L61.98 13.38Q61.45 13.80 60.77 13.80L60.77 13.80L60.77 13.80Q60.07 13.80 59.55 13.38L59.55 13.38L59.55 13.38Q59.02 12.95 58.87 12.28L58.87 12.28L58.46 10.44L58.46 10.44Q58.39 10.15 58.25 9.28L58.25 9.28L58.25 9.28Q58.20 8.99 58.17 8.69L58.17 8.69L58.07 8.69L57.97 9.28L57.97 9.28Q57.83 10.09 57.76 10.43L57.76 10.43L57.34 12.31L57.34 12.31Q57.19 12.96 56.67 13.38L56.67 13.38L56.67 13.38Q56.15 13.80 55.48 13.80L55.48 13.80ZM68.31 13.90L68.31 13.90Q67.16 13.90 66.25 13.41L66.25 13.41L66.25 13.41Q65.34 12.92 64.82 12.01L64.82 12.01L64.82 12.01Q64.30 11.10 64.30 9.90L64.30 9.90L64.30 9.90Q64.30 8.74 64.78 7.82L64.78 7.82L64.78 7.82Q65.27 6.90 66.16 6.38L66.16 6.38L66.16 6.38Q67.06 5.87 68.25 5.87L68.25 5.87L68.25 5.87Q69.45 5.87 70.32 6.38L70.32 6.38L70.32 6.38Q71.19 6.89 71.63 7.71L71.63 7.71L71.63 7.71Q72.07 8.54 72.07 9.44L72.07 9.44L72.07 9.44Q72.07 10.01 71.81 10.29L71.81 10.29L71.81 10.29Q71.54 10.57 70.92 10.57L70.92 10.57L66.79 10.57L66.79 10.57Q66.86 11.26 67.28 11.66L67.28 11.66L67.28 11.66Q67.70 12.07 68.36 12.07L68.36 12.07L68.36 12.07Q68.75 12.07 69.02 11.94L69.02 11.94L69.02 11.94Q69.29 11.80 69.50 11.59L69.50 11.59L69.50 11.59Q69.69 11.41 69.85 11.32L69.85 11.32L69.85 11.32Q70.01 11.23 70.25 11.23L70.25 11.23L70.25 11.23Q70.69 11.23 70.99 11.54L70.99 11.54L70.99 11.54Q71.30 11.86 71.30 12.31L71.30 12.31L71.30 12.31Q71.30 12.80 70.88 13.15L70.88 13.15L70.88 13.15Q70.50 13.47 69.80 13.69L69.80 13.69L69.80 13.69Q69.10 13.90 68.31 13.90L68.31 13.90ZM66.81 9.04L69.57 9.04L69.57 9.04Q69.54 8.37 69.17 7.98L69.17 7.98L69.17 7.98Q68.80 7.59 68.21 7.59L68.21 7.59L68.21 7.59Q67.62 7.59 67.25 7.98L67.25 7.98L67.25 7.98Q66.88 8.37 66.81 9.04L66.81 9.04ZM76.47 13.90L76.47 13.90Q75.32 13.90 74.41 13.41L74.41 13.41L74.41 13.41Q73.50 12.92 72.98 12.01L72.98 12.01L72.98 12.01Q72.46 11.10 72.46 9.90L72.46 9.90L72.46 9.90Q72.46 8.74 72.95 7.82L72.95 7.82L72.95 7.82Q73.43 6.90 74.33 6.38L74.33 6.38L74.33 6.38Q75.22 5.87 76.41 5.87L76.41 5.87L76.41 5.87Q77.62 5.87 78.48 6.38L78.48 6.38L78.48 6.38Q79.35 6.89 79.79 7.71L79.79 7.71L79.79 7.71Q80.23 8.54 80.23 9.44L80.23 9.44L80.23 9.44Q80.23 10.01 79.97 10.29L79.97 10.29L79.97 10.29Q79.70 10.57 79.09 10.57L79.09 10.57L74.96 10.57L74.96 10.57Q75.03 11.26 75.45 11.66L75.45 11.66L75.45 11.66Q75.87 12.07 76.52 12.07L76.52 12.07L76.52 12.07Q76.92 12.07 77.18 11.94L77.18 11.94L77.18 11.94Q77.45 11.80 77.66 11.59L77.66 11.59L77.66 11.59Q77.85 11.41 78.02 11.32L78.02 11.32L78.02 11.32Q78.18 11.23 78.41 11.23L78.41 11.23L78.41 11.23Q78.85 11.23 79.16 11.54L79.16 11.54L79.16 11.54Q79.46 11.86 79.46 12.31L79.46 12.31L79.46 12.31Q79.46 12.80 79.04 13.15L79.04 13.15L79.04 13.15Q78.67 13.47 77.97 13.69L77.97 13.69L77.97 13.69Q77.27 13.90 76.47 13.90L76.47 13.90ZM74.97 9.04L77.73 9.04L77.73 9.04Q77.70 8.37 77.33 7.98L77.33 7.98L77.33 7.98Q76.96 7.59 76.37 7.59L76.37 7.59L76.37 7.59Q75.78 7.59 75.41 7.98L75.41 7.98L75.41 7.98Q75.04 8.37 74.97 9.04L74.97 9.04ZM84.04 13.86L84.04 13.86Q82.70 13.86 82.14 13.20L82.14 13.20L82.14 13.20Q81.58 12.53 81.59 11.13L81.59 11.13L81.61 7.78L81.21 7.78L81.21 7.78Q80.86 7.78 80.61 7.53L80.61 7.53L80.61 7.53Q80.36 7.28 80.36 6.93L80.36 6.93L80.36 6.93Q80.36 6.57 80.61 6.31L80.61 6.31L80.61 6.31Q80.86 6.06 81.21 6.06L81.21 6.06L81.69 6.06L81.75 5.03L81.75 5.03Q81.77 4.56 82.12 4.23L82.12 4.23L82.12 4.23Q82.46 3.91 82.94 3.91L82.94 3.91L82.94 3.91Q83.43 3.91 83.78 4.26L83.78 4.26L83.78 4.26Q84.13 4.61 84.13 5.10L84.13 5.10L84.13 6.06L84.95 6.06L84.95 6.06Q85.30 6.06 85.55 6.31L85.55 6.31L85.55 6.31Q85.81 6.57 85.81 6.92L85.81 6.92L85.81 6.92Q85.81 7.28 85.55 7.53L85.55 7.53L85.55 7.53Q85.30 7.78 84.95 7.78L84.95 7.78L84.18 7.78L84.18 10.91L84.18 10.91Q84.18 11.48 84.43 11.72L84.43 11.72L84.43 11.72Q84.67 11.96 85.18 11.96L85.18 11.96L85.18 11.96Q85.50 12.03 85.72 12.29L85.72 12.29L85.72 12.29Q85.95 12.54 85.95 12.89L85.95 12.89L85.95 12.89Q85.95 13.19 85.79 13.42L85.79 13.42L85.79 13.42Q85.62 13.65 85.37 13.76L85.37 13.76L85.37 13.76Q84.81 13.86 84.04 13.86L84.04 13.86ZM91.62 13.80L91.62 13.80Q91.08 13.80 90.70 13.42L90.70 13.42L90.70 13.42Q90.31 13.03 90.31 12.50L90.31 12.50L90.31 3.99L90.31 3.99Q90.31 3.46 90.70 3.07L90.70 3.07L90.70 3.07Q91.08 2.69 91.62 2.69L91.62 2.69L91.62 2.69Q92.15 2.69 92.53 3.07L92.53 3.07L92.53 3.07Q92.92 3.46 92.92 3.99L92.92 3.99L92.92 7.22L92.92 7.22Q93.21 6.64 93.77 6.26L93.77 6.26L93.77 6.26Q94.33 5.89 95.20 5.89L95.20 5.89L95.20 5.89Q96.60 5.89 97.24 6.68L97.24 6.68L97.24 6.68Q97.89 7.48 97.89 8.86L97.89 8.86L97.89 12.50L97.89 12.50Q97.89 13.03 97.50 13.42L97.50 13.42L97.50 13.42Q97.12 13.80 96.59 13.80L96.59 13.80L96.59 13.80Q96.05 13.80 95.67 13.42L95.67 13.42L95.67 13.42Q95.28 13.03 95.28 12.50L95.28 12.50L95.28 9.27L95.28 9.27Q95.28 8.48 94.95 8.18L94.95 8.18L94.95 8.18Q94.61 7.87 94.18 7.87L94.18 7.87L94.18 7.87Q93.66 7.87 93.29 8.24L93.29 8.24L93.29 8.24Q92.92 8.61 92.92 9.59L92.92 9.59L92.92 12.50L92.92 12.50Q92.92 13.03 92.53 13.42L92.53 13.42L92.53 13.42Q92.15 13.80 91.62 13.80L91.62 13.80ZM102.69 13.90L102.69 13.90Q101.43 13.90 100.53 13.38L100.53 13.38L100.53 13.38Q99.64 12.87 99.18 11.96L99.18 11.96L99.18 11.96Q98.71 11.05 98.71 9.90L98.71 9.90L98.71 9.90Q98.71 8.72 99.19 7.81L99.19 7.81L99.19 7.81Q99.67 6.90 100.58 6.38L100.58 6.38L100.58 6.38Q101.49 5.87 102.75 5.87L102.75 5.87L102.75 5.87Q104.01 5.87 104.92 6.38L104.92 6.38L104.92 6.38Q105.83 6.90 106.29 7.81L106.29 7.81L106.29 7.81Q106.75 8.72 106.75 9.87L106.75 9.87L106.75 9.87Q106.75 11.03 106.27 11.95L106.27 11.95L106.27 11.95Q105.78 12.87 104.87 13.38L104.87 13.38L104.87 13.38Q103.95 13.90 102.69 13.90L102.69 13.90ZM102.73 12.04L102.73 12.04Q103.43 12.04 103.78 11.47L103.78 11.47L103.78 11.47Q104.13 10.89 104.13 9.88L104.13 9.88L104.13 9.88Q104.13 8.88 103.78 8.30L103.78 8.30L103.78 8.30Q103.43 7.73 102.72 7.73L102.72 7.73L102.72 7.73Q102.02 7.73 101.67 8.29L101.67 8.29L101.67 8.29Q101.32 8.86 101.32 9.87L101.32 9.87L101.32 9.87Q101.32 10.89 101.68 11.47L101.68 11.47L101.68 11.47Q102.03 12.04 102.73 12.04L102.73 12.04ZM108.98 13.80L108.98 13.80Q108.44 13.80 108.06 13.42L108.06 13.42L108.06 13.42Q107.67 13.03 107.67 12.50L107.67 12.50L107.67 7.15L107.67 7.15Q107.67 6.66 108.03 6.31L108.03 6.31L108.03 6.31Q108.39 5.95 108.88 5.95L108.88 5.95L108.88 5.95Q109.38 5.95 109.74 6.31L109.74 6.31L109.74 6.31Q110.10 6.66 110.10 7.15L110.10 7.15L110.10 7.35L110.10 7.35Q110.42 6.72 111.03 6.31L111.03 6.31L111.03 6.31Q111.65 5.91 112.56 5.91L112.56 5.91L112.56 5.91Q114.45 5.91 115.02 7.42L115.02 7.42L115.02 7.42Q115.77 5.91 117.53 5.91L117.53 5.91L117.53 5.91Q118.93 5.91 119.57 6.70L119.57 6.70L119.57 6.70Q120.22 7.49 120.22 8.88L120.22 8.88L120.22 12.50L120.22 12.50Q120.22 13.03 119.83 13.42L119.83 13.42L119.83 13.42Q119.45 13.80 118.92 13.80L118.92 13.80L118.92 13.80Q118.38 13.80 118.00 13.42L118.00 13.42L118.00 13.42Q117.61 13.03 117.61 12.50L117.61 12.50L117.61 9.27L117.61 9.27Q117.61 8.48 117.28 8.18L117.28 8.18L117.28 8.18Q116.94 7.88 116.51 7.88L116.51 7.88L116.51 7.88Q116.00 7.88 115.63 8.25L115.63 8.25L115.63 8.25Q115.25 8.62 115.25 9.59L115.25 9.59L115.25 12.50L115.25 12.50Q115.25 13.03 114.86 13.42L114.86 13.42L114.86 13.42Q114.48 13.80 113.95 13.80L113.95 13.80L113.95 13.80Q113.41 13.80 113.03 13.42L113.03 13.42L113.03 13.42Q112.64 13.03 112.64 12.50L112.64 12.50L112.64 9.27L112.64 9.27Q112.64 8.48 112.31 8.18L112.31 8.18L112.31 8.18Q111.97 7.88 111.54 7.88L111.54 7.88L111.54 7.88Q111.03 7.88 110.66 8.25L110.66 8.25L110.66 8.25Q110.28 8.62 110.28 9.59L110.28 9.59L110.28 12.50L110.28 12.50Q110.28 13.03 109.89 13.42L109.89 13.42L109.89 13.42Q109.51 13.80 108.98 13.80L108.98 13.80ZM125.03 13.90L125.03 13.90Q123.89 13.90 122.98 13.41L122.98 13.41L122.98 13.41Q122.07 12.92 121.55 12.01L121.55 12.01L121.55 12.01Q121.03 11.10 121.03 9.90L121.03 9.90L121.03 9.90Q121.03 8.74 121.51 7.82L121.51 7.82L121.51 7.82Q122.00 6.90 122.89 6.38L122.89 6.38L122.89 6.38Q123.79 5.87 124.98 5.87L124.98 5.87L124.98 5.87Q126.18 5.87 127.05 6.38L127.05 6.38L127.05 6.38Q127.92 6.89 128.36 7.71L128.36 7.71L128.36 7.71Q128.80 8.54 128.80 9.44L128.80 9.44L128.80 9.44Q128.80 10.01 128.53 10.29L128.53 10.29L128.53 10.29Q128.27 10.57 127.65 10.57L127.65 10.57L123.52 10.57L123.52 10.57Q123.59 11.26 124.01 11.66L124.01 11.66L124.01 11.66Q124.43 12.07 125.09 12.07L125.09 12.07L125.09 12.07Q125.48 12.07 125.75 11.94L125.75 11.94L125.75 11.94Q126.01 11.80 126.22 11.59L126.22 11.59L126.22 11.59Q126.42 11.41 126.58 11.32L126.58 11.32L126.58 11.32Q126.74 11.23 126.98 11.23L126.98 11.23L126.98 11.23Q127.41 11.23 127.72 11.54L127.72 11.54L127.72 11.54Q128.03 11.86 128.03 12.31L128.03 12.31L128.03 12.31Q128.03 12.80 127.61 13.15L127.61 13.15L127.61 13.15Q127.23 13.47 126.53 13.69L126.53 13.69L126.53 13.69Q125.83 13.90 125.03 13.90L125.03 13.90ZM123.54 9.04L126.29 9.04L126.29 9.04Q126.27 8.37 125.90 7.98L125.90 7.98L125.90 7.98Q125.52 7.59 124.94 7.59L124.94 7.59L124.94 7.59Q124.35 7.59 123.98 7.98L123.98 7.98L123.98 7.98Q123.61 8.37 123.54 9.04L123.54 9.04Z"></path></g><defs data-v-fde0c5aa=""><linearGradient data-v-fde0c5aa="" gradientTransform="rotate(25)" id="3f67ce50-9cfa-4b7c-bf10-aa8b1e397247" x1="0%" y1="0%" x2="100%" y2="0%"><stop data-v-fde0c5aa="" offset="0%" stop-color="#0015D6" stop-opacity="1"></stop><stop data-v-fde0c5aa="" offset="100%" stop-color="#0989FB" stop-opacity="1"></stop></linearGradient></defs><g data-v-fde0c5aa="" id="228f233c-7976-4255-858b-46ca5ed26b6c" stroke="none" fill="url(#3f67ce50-9cfa-4b7c-bf10-aa8b1e397247)" transform="matrix(0.25993075440927815,0,0,0.25993075440927815,39.961866649103825,136.98331743288458)"><path d="M99.511 38.569L50.993 4.606a1.489 1.489 0 0 0-1.708 0L.779 38.569a1.492 1.492 0 0 0-.364 2.073l6.606 9.434a1.485 1.485 0 0 0 2.074.366l41.051-28.748 41.049 28.748a1.489 1.489 0 0 0 2.074-.366l6.607-9.434a1.492 1.492 0 0 0-.365-2.073z"></path><path d="M87.456 53.667l-36.457-25.53a1.49 1.49 0 0 0-1.707 0L12.641 53.803a1.486 1.486 0 0 0-.635 1.22v39.454c0 .82.667 1.488 1.49 1.488h25.502a1.49 1.49 0 0 0 1.489-1.488V60.095h19.32v34.382c0 .82.666 1.488 1.489 1.488h25.309c.823 0 1.486-.668 1.486-1.488V54.886a1.488 1.488 0 0 0-.635-1.219zM74.213 15.768l11.411 7.99a1.494 1.494 0 0 0 1.542.102c.49-.256.801-.766.801-1.321V5.678c0-.822-.667-1.488-1.489-1.488H75.065c-.822 0-1.488.667-1.488 1.488v8.871c-.001.484.235.94.636 1.219z"></path></g><!----></svg>